<?xml version="1.0" standalone="no"?><!DOCTYPE svg PUBLIC "-//W3C//DTD SVG 1.1//EN" "http://www.w3.org/Graphics/SVG/1.1/DTD/svg11.dtd"><svg t="1632714831610" class="icon" viewBox="0 0 1024 1024" version="1.1" xmlns="http://www.w3.org/2000/svg" p-id="8173" xmlns:xlink="http://www.w3.org/1999/xlink" width="16" height="16"><defs><style type="text/css"></style></defs><path d="M201.74791583 56.95740172c-4.65896937 7.16493034-9.75560037 17.67231845-11.33329662 23.35132046-1.57769625 5.67547258-5.60841066 14.12161883-8.95439924 18.76999991-5.45664107 7.57082574-5.94724553 9.64971473-4.72602989 20.03357006 1.32709988 11.29094209-1.04473863 20.15357341-10.5038587 39.27299646-1.83535149 3.70599865-1.51416514 6.55432391 1.44004437 12.77687181 2.2659529 4.77544329 3.36363435 10.74033733 2.71773226 14.77811062-0.59295929 3.72717521-0.20118299 11.66154182 0.86826304 17.63349334 1.71887756 9.56147625 2.94715066 17.69349642 7.36964276 48.70035165 0.58237099 4.08718666 2.35066195 8.97557583 3.92835819 10.86034067 1.58122567 1.88476487 3.98130102 7.33787789 5.34016852 12.11685063 1.35886612 4.77897409 3.600113 12.46627376 4.9801557 17.08288857 5.18486812 17.32289667 31.41980949 34.52578862 37.63529855 24.67842171 1.87417658-2.97538748 2.45654757-2.80950016 4.50719977 1.30239388 4.43308037 8.89439618 10.14384724 5.73900368 19.50414051-10.77210359 4.83191691-8.52379646 12.44862523-19.52178903 16.92759093-24.44194305 4.47896434-4.92368346 8.14613788-9.84383886 8.14613788-10.9379895 0-3.02480086 13.52160069-10.73327849 24.77018825-14.1180908 10.10149271-3.03891858 20.73594442-11.06858254 20.80300495-15.70637392 0.02117657-1.37651326 2.97185805-3.52246279 6.5543239-4.77191525 3.58246587-1.24945106 6.51549881-3.67776183 6.51549881-5.39310996 0-1.84241034 4.64485165-4.64132221 11.32270695-6.82256743 6.22607732-2.04006389 14.01220377-5.9684221 17.3017201-8.73556773 3.28598553-2.76714563 10.16502521-5.7142963 15.28283141-6.54373423 5.121337-0.83296737 11.74978031-3.69893978 14.73928688-6.36725864 11.52036189-10.29208741 66.66562099-19.77591484 127.06280875-21.8512744 7.16493034-0.24706694 21.33949337-0.73767002 31.4939289-1.09415202 10.15443553-0.35295259 15.77343586-1.04826806 12.48745033-1.54593003-16.16874297-2.44948871-2.80950016-4.97662628 27.14908702-5.13898553 66.60561795-0.35648202 106.59157844-4.89897745 85.02266664-9.65677359-9.80148432-2.16359668-12.43097808-3.20833533-11.19564474-4.44366867 1.98006222-1.97653279 58.58301423-8.05789938 74.41292233-7.99083885 15.92167602 0.06353111 77.10947801 3.26833838 77.10947662 4.03424522 0 3.10950993-25.90669482 26.16082062-41.27070583 36.72468098-25.93846105 17.83467772-64.5373186 46.96029613-106.42922055 80.30369561a16953.0799894 16953.0799894 0 0 1-64.07142153 50.74041416c-15.52989834 12.21567739-33.611643 26.67966051-40.18361406 32.13630296-6.57197105 5.45664107-21.72068137 18.0111533-33.66458443 27.89734532-25.6384513 21.21948863-100.6302152 87.84275509-142.65976902 126.74515185-50.34157902 46.59322585-167.84644095 166.12050453-213.86435465 217.5491767-65.94912754 73.69995831-68.5397962 76.09297479-94.60532085 87.39097575-36.48114484 15.80873153-39.21299479 19.68767634-44.26727128 62.87844273-3.97424215 33.93635875-3.12362765 45.96497088 3.54011133 50.12980774 2.33301481 1.45416348 4.23895625 4.65896937 4.23895626 7.11904777 0 5.53429127 3.91776991 9.71324585 7.7331836 8.24849406 1.90594145-0.73061117 3.34951663 1.50357685 4.32013591 6.68491556 1.19297881 6.3496115 2.41772249 7.782597 6.64961987 7.782597 3.16245276 0 5.18839755 1.27062764 5.18839891 3.25774871 0 4.75073728 3.81894314 3.98835987 5.42840563-1.08356374 0.75884798-2.38948705 2.29066028-4.34484188 3.40598889-4.34484189 1.11532861 0 2.02594618-2.93303294 2.02594617-6.5154988 0-3.58599529 0.99885469-6.51549881 2.2165395-6.51549743 1.22121424 0 3.33186949-2.4459593 4.69426504-5.43193506 2.86597242-6.286079 6.10607397-7.14375375 6.15548737-1.62711102 0.01764715 2.29066028 0.66708005 2.87303127 1.62710963 1.46828256 4.5248483-6.60726672 9.19793538-5.16369154 9.505004 2.94362125l0.31059806 8.0755479 1.32004101-8.51673761c1.44357518-9.30382101 11.09328854-13.86043417 11.09328991-5.2378123 0 6.3001981 3.51187452 4.66602822 8.64027039-4.02718498 3.66364412-6.21195961 5.15310325-7.30964108 6.63903158-4.90250688 1.52828285 2.46713586 2.46713586 2.55184493 4.61308679 0.40236597 6.39549407-6.39549407 15.14165147 0.80120113 10.28502856 8.46732421-1.54946081 2.44242986-1.87770602 2.4071342-1.90594283-0.19412413-0.0494134-4.67661789-3.57540562-0.04588396-5.19192698 6.81550858-0.75531717 3.21186613-0.39177767 6.4484369 0.80473055 7.1896377 1.20003767 0.74119946 2.18124522 3.24363099 2.18124522 5.56252671 0 6.08842683 3.64599698 5.17780926 6.96021793-1.7365247 5.23075207-10.91328351 60.65484437-26.26670625 65.64911778-18.19115973 1.96947392 3.18715875 11.31564948 2.81302959 20.78888723-0.8364968 4.17895457-1.6094625 6.74844666-3.00009348 5.70370939-3.09186139-1.04120921-0.09176791-0.67766834-1.63063907 0.81178941-3.42363602 2.23418802-2.69302625 2.00123879-3.29304438-1.36239555-3.45187284-2.23771746-0.10941506-0.75884798-1.15062428 3.28598553-2.31183823 5.00839252-1.44004576 8.09319505-1.37651326 9.66383244 0.19412412 1.27415707 1.27062764 4.07306894 2.31183684 6.22254791 2.31183686s3.91071105 0.97767811 3.91071106 2.17065692c0 1.19650823 1.46475177 2.17418635 3.25774871 2.17418495 4.15424857 0 4.12601177-1.95535484-0.10235621-6.62844192-3.10244969-3.42716684-2.72479111-3.81894314 4.88838915-5.12839725a598.74819265 598.74819265 0 0 0 18.01821218-3.48010826 381.18842766 381.18842766 0 0 1 17.91938539-3.2824561c8.3755563-1.26003935 11.4215351-5.37193338 3.9777716-5.37193338-6.61079616 0-11.03681629-2.36477967-11.0368163-5.89783214 0-2.14947897-1.23180391-2.78479278-3.624819-1.86358829-1.99417994 0.76237741-11.03681629 2.40007534-20.09357174 3.63187925-9.05322463 1.23180391-27.10320305 4.62014427-40.10596385 7.5284712-24.97137123 5.58723408-32.72220338 6.45549714-30.8727328 3.46246112 1.68711132-2.72832053 26.23846944-8.7320383 44.74022583-10.93798951 18.0111533-2.14594954 40.49421072-8.11790105 42.44250808-11.26976552 0.69178606-1.11885804 3.44481397-2.02947561 6.12372111-2.0294756 2.67537772 0 5.79547593-0.9000279 6.92845307-2.00123881 2.61184661-2.52713755 18.72411732-3.71305749 22.10539882-1.62710963 1.39769122 0.86473362 7.98025057 1.39416179 14.62634239 1.1788597 6.64609044-0.21883013 12.72392898 0.24353753 13.50395216 1.02709151 0.78355399 0.78002455-0.93885301 1.48945914-3.826002 1.57416682-2.88714899 0.08470906-7.20375542 1.06238578-9.59324248 2.17418635-2.83067675 1.32004102 2.96126976 1.58122567 16.62052095 0.74825831 18.44881357-1.12238746 21.21948863-0.82590852 23.07248864 2.48831382 1.80711605 3.22598385 5.84841875 3.79776656 28.23970962 3.98835987 14.3722152 0.12353278 25.7513958-0.39530711 25.28902814-1.14709484-0.46589708-0.75178773 8.18143355-1.25650992 19.21119097-1.12238746 11.88390276 0.14471073 21.90774666-0.80120113 24.59724207-2.32242652 6.16607566-3.49069793 13.70513515-1.26003935 13.31335885 3.94247729-0.25059637 3.28598553-2.0153579 4.12954118-8.66144834 4.1295412-4.59543826 0-12.79804837 1.11885804-18.23351286 2.48831244l-9.87913316 2.48831382 6.9955136 2.94009182c3.84717995 1.62005078 9.81560204 2.94362123 13.26394544 2.9436226 3.44481397 0 6.26490243 0.80825999 6.26490245 1.79652638 0 1.74358357-28.86796458 6.93551193-38.42238196 6.90374568-2.61890546-0.00705885-5.46017188 1.11532861-6.3107864 2.49890211-1.10826975 1.78946753 0.37059973 2.12477296 5.14957382 1.16827282 3.68482206-0.7341406 19.70532349-2.44242986 35.59876409-3.7907077 15.89343921-1.35180726 30.47389763-3.29657381 32.40101566-4.33072419 4.1436589-2.2165395 15.48401577 0.38471745 16.62405037 3.81188428 1.09415203 3.27892667-11.86625422 7.1366949-21.23713578 6.32137468-4.22836797-0.37059973-14.97929358 1.6341685-23.8913383 4.45425696-13.53218898 4.28131078-14.67928382 4.97662628-6.9708062 4.21425025 9.00381125-0.89296903 13.80043249 1.2776865 9.1626397 4.14365889-4.17542514 2.58360979 2.36477967 7.56023745 9.93207597 7.56023744 8.38261653 0 14.02985229 1.84241034 14.02985229 4.57779113 0 1.06591521-1.95535484 1.93770769-4.34484188 1.93770768s-4.34484188 1.06238578-4.3448419 2.36477967c0 1.51769457 2.90832693 1.88476487 8.14613788 1.03062092 16.36286572-2.67537772 121.67675765-1.99770935 118.81078526 0.76590685-1.13650656 1.09415203-4.50719978 2.50596097-7.49317692 3.14480421-2.98950518 0.63531381 2.25536461 0.72002288 11.6474241 0.19059469 17.42878231-0.98473697 36.13525111 4.06601008 36.13525111 9.75912843 0 1.26003935 1.6341685 2.2941897 3.63187926 2.29418971 1.99417994 0 5.52370299 1.70828927 7.83906926 3.79776655 5.32604942 4.80720953 164.46162864 5.27663602 192.78957674 0.5717827 51.35808083-8.53438476 89.57222095-48.14974551 94.48531612-97.95130804 6.30725696-63.94082851-15.74872986-138.98906606-55.33585381-188.307083-28.92090739-36.02936548-33.78105973-36.7282104-38.958869-5.59429293-1.56004911 9.38500064-3.18715875 18.22645402-3.61070128 19.64532181-1.54240195 5.13545472-28.67384045 9.76971809-98.75603862 16.86758788-18.51587549 1.87417658-39.04004863 4.33425359-45.61201829 5.4637013-6.56844162 1.12944771-27.58321785 3.61423072-46.69911286 5.52017355-19.1123642 1.90947226-46.14497728 4.9307423-60.06894256 6.71315099-13.92396666 1.78240867-41.77895745 4.09777494-61.90076462 5.14251496-33.05044857 1.71887756-164.96988026 16.43345706-197.31442504 22.01010146-7.16845977 1.23533334-17.1852448 2.79538244-22.26422729 3.46599196-5.07545306 0.67060948-9.22970162 1.94829598-9.22970161 2.8377356 0 2.41772249 11.66154182 4.28484021 17.38995722 2.78832219 3.47658022-0.91061619 4.53190717-0.5435459 3.45540225 1.20356711-0.85414396 1.38357213-3.93894649 2.51301983-6.85786171 2.51302121-3.42010659 0-5.30134341 1.23886277-5.30134204 3.49069656 0 1.92006055-1.22121424 3.02833029-2.71420281 2.46360781-2.38948705-0.90355733-31.70217074 3.58599529-60.27365637 9.23322968-12.73451728 2.51654926-19.54649503 2.63655261-19.54649502 0.34589372 0-2.09300671 33.279867-11.26270666 40.72363052-11.21682269 2.68949681 0.01411772 4.88838916-0.9494413 4.88838916-2.14242012 0-3.34951663-22.49364707-2.57655093-43.74843138 1.496518-28.75502007 5.5131147-28.76560835 5.54487956 12.98158282-38.42238194 29.67975399-31.25392081 65.51852614-71.16929134 65.51852617-72.96581774 0-0.5964887-3.91071105 2.05418161-8.68968379 5.89430271s-8.68615435 7.58847289-8.68615571 8.32614291c0 0.74119946-8.82380623 10.5956266-19.61002614 21.90068777a2462.69606865 2462.69606865 0 0 0-40.36008965 43.63548552c-18.16998177 20.21357509-31.28921649 31.25039138-31.23980309 26.2878842 0.00705885-0.87179247 12.78746009-15.26871367 28.39853668-31.99159221 27.66086804-29.63387003 45.4355427-50.82865266 45.43554409-54.1817001 0-2.74949849 50.25334051-51.67573913 61.47369264-59.85011243 5.73900368-4.17895457 20.55240996-16.02403223 32.92338499-26.31611965 12.37097641-10.29208741 26.80672272-20.80300494 32.07982931-23.35484987 9.75207095-4.72250047 84.83207196-71.44812315 93.33822266-82.95789676 2.56596265-3.46951998 8.21672784-8.65791891 12.56156972-11.53447822 4.34131246-2.87303127 12.27214963-8.99675239 17.62290644-13.60983916a1825.35607869 1825.35607869 0 0 1 16.97347352-14.44633598c3.98483044-3.33539891 6.63903159-6.67079782 5.90136156-7.40846786-0.74119946-0.74119946-3.14127479 0.27530238-5.33310828 2.26242483-4.29542849 3.88600367-7.93789603 4.87074063-5.91547928 1.59887282 0.68119777-1.10474032-0.19765355-2.32595595-1.95535622-2.71773223-1.77534981-0.39177767 1.71534814-3.42716684 7.8708355-6.84374402 8.05436996-4.46484524 10.7085711-5.20604607 9.75207095-2.7142028-2.56596265 6.69197439 13.89572985-2.60478774 38.00589688-21.45596729 46.30380575-36.20584108 62.51843129-47.22148079 70.23043834-47.71561331 2.38948705-0.15176959 8.74262659-3.45540227 14.11809078-7.33787789 5.37899225-3.88247423 21.6995048-14.80634742 36.27643103-24.27605573 14.57339819-9.46970832 33.63281957-22.94895449 42.35426959-29.9585858 8.71792059-7.00610188 29.04796961-21.89362755 45.17435804-33.08221481 39.49182661-27.40321281 66.28796103-47.22853966 92.31113116-68.30684837 32.07629989-25.97728477 42.56251142-32.16806781 51.61220664-30.47036682 24.36076342 4.57073226 16.04167938-73.84466906-9.21911196-86.9074329-3.54011133-1.82829262-10.01678503-5.76018025-14.40045202-8.73203831-4.38013755-2.97185805-10.71210053-5.40722906-14.06867601-5.40722768-3.3565755 0-6.9178634-1.44710462-7.9096606-3.2224544-1.16827142-2.08594786-5.60488123-3.34245778-12.59686539-3.57187619-5.93665724-0.1905947-15.19106486-2.02241675-20.56652767-4.07306895-6.60726672-2.51654926-19.98062725-4.21777968-41.26717642-5.24487117-40.05655044-1.93417827-55.38879662-3.00715372-66.24913732-4.63073393-4.77544329-0.71296402-52.67106438-2.17065693-106.42569112-3.24010158-53.75815617-1.06591521-125.11098335-2.95068146-158.56026708-4.19307228-126.81927263-4.69779446-145.522212-4.92721289-184.61873149-2.23771744-73.62936835 5.05780592-113.51650207 5.05427648-115.12243513-0.00705886-2.3577208-7.43317387-7.16493034-4.81073895-15.93932318 8.696744m603.47422256 60.63013699l5.42840563 1.54593-5.82018193 1.50004745c-5.38605109 1.38357213-16.98406181-1.26709821-16.98406319-3.88600368 0-1.56710796 10.75798448-1.04473863 17.37583949 0.84002623m1.08709317 8.88027846c5.65429462 2.43184158-24.48076816 2.52007869-38.01295713 0.10941506-8.01201542-1.42592666-5.86253647-1.75770267 11.94743387-1.85652944 11.94743386-0.06706054 23.67603621 0.72002288 26.06552326 1.74711438m-61.11721201 11.94743388c-1.38710293 3.60717187-4.24954453 4.26719307-6.02842377 1.38710155-1.45416348-2.35066195 0.74472889-4.64838108 4.45072753-4.64838108 1.62005078 0 2.2941897 1.39063237 1.57769624 3.26127953M709.65325854 165.56433666c0 1.19297881 2.93303294 2.17065693 6.51549878 2.17065693 3.58599529 0 6.51549881-0.97767811 6.51549743-2.17065693 0-1.19650823-2.92950351-2.17418635-6.51549743-2.17418495-3.58246587 0-6.51549881 0.97767811-6.51549878 2.17418495m-150.7953186 292.96095374c-0.64943153 1.05179749-3.6495264 2.38595762-6.6637376 2.96126976-4.43660981 0.84708509-5.01192195 0.48354422-3.02127144-1.91300031 2.66478944-3.21186613 11.6227181-4.182484 9.68500904-1.04826945m-176.924373 162.21332429c-6.36019979 6.64961987-11.07564139 12.57215939-10.48268072 13.16511869 1.13297713 1.13297713 25.43373888-21.77362419 25.43373889-23.97604599 0-3.40245945-4.39425526-0.22588898-14.95105817 10.8109273m295.13866951 124.48625782c0 1.04826806-8.55203327 2.32242513-19.00294912 2.83067675-12.42038979 0.60354895-20.88771401 2.13536125-24.43488419 4.4224907-3.6883515 2.37536796-13.105117 3.95659502-29.32327199 4.9307437-32.61278832 1.95182541-83.85792465 6.63903159-142.26799272 13.00276078-91.91935347 10.02031445-100.10784587 10.56738979-103.7361943 6.93904136-2.87303127-2.87303127-1.79299696-3.41657716 9.52265113-4.79309182 7.02021959-0.85061452 14.71810892-1.93064884 17.10759598-2.39301648 19.55002447-3.79776656 49.86156422-7.55670802 84.70853917-10.50385868 22.69835949-1.92006055 52.01810205-4.51778945 65.16204415-5.77782877 21.94304095-2.10006558 122.37560257-9.69206927 136.29251038-10.30267569 3.28598553-0.1411813 5.97195154 0.5964887 5.97195151 1.64475815m-332.85867572 153.80600038c-5.39663939 1.40827951-4.71544161 6.43784861 1.08356374 7.99436827 9.15911027 2.45301814 15.22636052 1.62710964 13.87808132-1.89182373-0.68825664-1.78946753-0.24706694-3.2577487 0.98120753-3.25775009 1.22827449 0 1.62710964-0.97767811 0.88943963-2.17065553-1.35180726-2.18477465-9.76618867-2.52360811-16.83229222-0.67413892m53.75462673 24.74901168c-13.14041268 0.95650015-30.73155148 2.81302959-39.09651948 4.12601174-8.36143858 1.30945275-26.44318185 3.32128121-40.18008462 4.46484525-33.96106476 2.83067675-59.01008621 6.92492364-91.22403797 14.90870361-37.73765475 9.3532344-43.25429749 11.23799927-28.23617881 9.63206621 6.56844162-0.69884492 14.20632788-2.13183182 16.97347353-3.17657046 2.7636162-1.04473863 8.38614596-1.90241201 12.48745031-1.90241202 4.10483519 0 7.46141067-0.88591019 7.46141068-1.96947392 0-1.08003431 1.98359164-1.45063405 4.40837299-0.81531885 2.42478134 0.63531381 10.32032422-0.01058829 17.54878568-1.4329869 7.22493201-1.42239723 23.07954751-3.96718331 35.23169378-5.65429462 12.14861684-1.69064075 29.42209876-4.09777494 38.38002741-5.3507568 8.96145811-1.24945106 20.77124009-3.27539724 26.24905772-4.4966115 5.48134845-1.22121424 23.4077927-3.5612879 39.83772034-5.20251526 16.43345706-1.64475679 30.4421314-3.55069963 31.12685859-4.23542682 0.68825664-0.68825664-0.6211961-1.11179917-2.91185498-0.94591186l-28.05617517 2.0506522m69.50688603 19.36648999c-5.94018667 2.5483155 3.97777158 2.5483155 11.94390444 0 5.29428317-1.69770099 5.26957717-1.74358357-1.08356375-1.80358662-3.58599529-0.03529568-8.47085364 0.77649513-10.86034069 1.80358662m-5.43193506 8.71792058c-2.29066028 1.50004742-1.00238411 1.72240699 4.34484327 0.74119946 9.36735212-1.71887756 11.13564307-2.95421089 4.16130605-2.91185636-2.88714899 0.01764715-6.71315235 0.99532526-8.50614932 2.1706569m101.00081492 10.7438654c-2.55184493 1.04826806 1.4823989 1.31298217 9.7732489 0.64237405 7.76494987-0.63178438 14.52398479-1.50357685 15.02164674-1.93770769 1.83182205-1.60240364-20.59476311-0.42707197-24.79489564 1.29533364" p-id="8174" fill="#d4237a"></path></svg>