<?xml version="1.0" standalone="no"?><!DOCTYPE svg PUBLIC "-//W3C//DTD SVG 1.1//EN" "http://www.w3.org/Graphics/SVG/1.1/DTD/svg11.dtd"><svg t="1569590597904" class="icon" viewBox="0 0 1024 1024" version="1.1" xmlns="http://www.w3.org/2000/svg" p-id="5601" width="16" height="16" xmlns:xlink="http://www.w3.org/1999/xlink"><defs><style type="text/css"></style></defs><path d="M469.333333 85.333333 554.666667 85.333333 554.666667 170.666667 576 170.666667C611.413333 170.666667 640 199.253333 640 234.666667L640 384 621.226667 402.773333 691.2 523.946667C738.56 477.44 768 413.013333 768 341.333333L853.333333 341.333333C853.333333 444.586667 807.68 537.173333 735.146667 599.893333L869.12 832 874.666667 926.72 794.88 874.666667 663.893333 647.253333C618.666667 669.866667 566.613333 682.666667 512 682.666667 457.386667 682.666667 405.333333 669.866667 360.106667 647.253333L229.12 874.666667 149.333333 926.72 154.88 832 402.773333 402.773333 384 384 384 234.666667C384 199.253333 412.586667 170.666667 448 170.666667L469.333333 170.666667 469.333333 85.333333M402.773333 573.013333C436.053333 588.8 473.173333 597.333333 512 597.333333 550.826667 597.333333 587.946667 588.8 621.226667 573.013333L558.933333 465.066667 558.506667 465.066667C532.053333 490.666667 491.946667 490.666667 465.493333 465.066667L465.066667 465.066667 402.773333 573.013333M512 256C488.533333 256 469.333333 275.2 469.333333 298.666667 469.333333 322.133333 488.533333 341.333333 512 341.333333 535.466667 341.333333 554.666667 322.133333 554.666667 298.666667 554.666667 275.2 535.466667 256 512 256Z" p-id="5602" fill="#515151"></path></svg>