<?xml version="1.0" standalone="no"?><!DOCTYPE svg PUBLIC "-//W3C//DTD SVG 1.1//EN" "http://www.w3.org/Graphics/SVG/1.1/DTD/svg11.dtd"><svg t="1632714973386" class="icon" viewBox="0 0 1024 1024" version="1.1" xmlns="http://www.w3.org/2000/svg" p-id="11192" xmlns:xlink="http://www.w3.org/1999/xlink" width="16" height="16"><defs><style type="text/css"></style></defs><path d="M773.85 153.6c52.88 0 95.58 40.16 95.56 89.69v537.42c0 49.62-42.77 89.69-95.56 89.69h-525.7c-52.88 0-95.55-40.16-95.55-89.71v-537.4c0-49.62 42.77-89.69 95.55-89.69h525.7z m49.35 599.84v-482.9c0-36.29-36.73-71.74-76.08-71.74H274.88c-39.27 0-77.08 35.65-77.08 71.74v482.89c0 36.32 37.74 71.77 77.08 71.77h472.24c39.25 0 76.08-35.64 76.08-71.76z m-429-272.6h131.2c3.54 0 6.4-2.86 6.4-6.4V380.8c0-14.14 11.46-25.6 25.6-25.6s25.6 11.46 25.6 25.6v262.4c0 14.14-11.46 25.6-25.6 25.6s-25.6-11.46-25.6-25.6V538.44a6.4 6.4 0 0 0-6.4-6.4H394.2a6.4 6.4 0 0 0-6.4 6.4V643.2c0 14.14-11.46 25.6-25.6 25.6s-25.6-11.46-25.6-25.6V380.8c0-14.14 11.46-25.6 25.6-25.6s25.6 11.46 25.6 25.6v93.64c0 3.53 2.87 6.4 6.4 6.4z m265.6-36.04c14.14 0 25.6 11.46 25.6 25.6v172.8c0 14.14-11.46 25.6-25.6 25.6s-25.6-11.46-25.6-25.6V470.4c0-14.14 11.46-25.6 25.6-25.6z m0-89.6c14.14 0 25.6 11.46 25.6 25.6V400c0 14.14-11.46 25.6-25.6 25.6s-25.6-11.46-25.6-25.6v-19.2c0-14.14 11.46-25.6 25.6-25.6z m0 0" p-id="11193" fill="#2c2c2c"></path></svg>