<?xml version="1.0" standalone="no"?><!DOCTYPE svg PUBLIC "-//W3C//DTD SVG 1.1//EN" "http://www.w3.org/Graphics/SVG/1.1/DTD/svg11.dtd"><svg t="1569144037746" class="icon" viewBox="0 0 1024 1024" version="1.1" xmlns="http://www.w3.org/2000/svg" p-id="10574" width="16" height="16" xmlns:xlink="http://www.w3.org/1999/xlink"><defs><style type="text/css"></style></defs><path d="M981.137859 1023.573511H42.862141a42.648896 42.648896 0 0 1 0-85.297793h938.275718a42.648896 42.648896 0 0 1 0 85.297793zM153.322782 872.596418A85.297793 85.297793 0 0 1 71.436901 810.32903a81.459392 81.459392 0 0 1 0-47.340275L128.159933 584.289879a42.648896 42.648896 0 0 1 10.235735-16.633069L330.742191 366.780508l301.954186-302.380675a127.946689 127.946689 0 0 1 180.83132 0l60.561433 60.561433a127.946689 127.946689 0 0 1 0 180.83132l-301.954186 301.527697-192.773011 200.449813a42.648896 42.648896 0 0 1-19.618493 11.515202l-183.816743 49.899208a80.606414 80.606414 0 0 1-22.603915 3.411912z m52.031654-253.334444l-52.031654 168.036652 172.72803-47.340275L512 547.611828l170.595585-172.72803L563.605165 255.893378l-170.595586 170.595585z m143.300291 158.653894z m275.51187-584.289879l120.696377 120.696377 68.664723-68.664723a42.648896 42.648896 0 0 0 0-60.561433l-60.134944-60.134944a42.648896 42.648896 0 0 0-60.561433 0z" p-id="10575"></path></svg>