<?xml version="1.0" standalone="no"?><!DOCTYPE svg PUBLIC "-//W3C//DTD SVG 1.1//EN" "http://www.w3.org/Graphics/SVG/1.1/DTD/svg11.dtd"><svg t="1632481117745" class="icon" viewBox="0 0 1024 1024" version="1.1" xmlns="http://www.w3.org/2000/svg" p-id="1873" xmlns:xlink="http://www.w3.org/1999/xlink" width="200" height="200"><defs><style type="text/css"></style></defs><path d="M590.772 123.78v258.812h-90.022l-67.516-146.28-0.006-112.532z" fill="#FFD686" p-id="1874"></path><path d="M433.228 236.308h78.762v146.28h-78.762z" fill="#FFEDC6" p-id="1875"></path><path d="M651.018 347.258c-11.838-17.712-38.956-32.182-60.246-32.182h-17.24v180.042l131.252-67.516-53.766-80.344z" fill="#D3552B" p-id="1876"></path><path d="M675.168 45.012v123.78h67.516c31.08 0 56.264-25.184 56.264-56.264l-123.78-67.516zM967.736 0.002H900.22v112.526h67.516c31.08 0 56.264-25.184 56.264-56.264S998.816 0.002 967.736 0.002z" fill="#FFD686" p-id="1877"></path><path d="M900.22 0.002H56.27C25.19 0.002 0.006 25.186 0.006 56.266s25.184 56.264 56.264 56.264h168.79c0 31.08 25.184 56.264 56.264 56.264h393.844c31.08 0 56.264-25.184 56.264-56.264h168.79c31.08 0 56.264-25.184 56.264-56.264S931.3 0.002 900.22 0.002z" fill="#FFEDC6" p-id="1878"></path><path d="M704.784 427.602l218.348 326.328-260.546 112.526V427.602z" fill="#4393A8" p-id="1879"></path><path d="M662.586 427.602l170.524 326.328-366.118 112.526-366.116-112.526 218.346-326.328 192.782-90.02z" fill="#55B9D3" p-id="1880"></path><path d="M662.586 427.602h-38.056v157.538c0 21.762-17.622 39.384-39.384 39.384-21.74 0-39.384-17.622-39.384-39.384v-157.538h-67.516v90.022c0 21.762-17.622 39.384-39.384 39.384-21.74 0-39.384-17.622-39.384-39.384v-90.022h-80.254l53.766-80.344c11.838-17.712 38.956-32.182 60.246-32.182h140.298c16.632 0 37.808 14.47 47.058 32.182l41.994 80.344zM1023.994 753.934v270.064h-67.516l-112.528-135.032 112.528-135.032z" fill="#FD8300" p-id="1881"></path><path d="M0 753.93h956.478v270.064H0z" fill="#FFA850" p-id="1882"></path><path d="M405.096 906.128h-22.506a16.88 16.88 0 0 1 0-33.758h22.506a16.88 16.88 0 0 1 0 33.758z" fill="#FE9528" p-id="1883"></path><path d="M956.478 973.362h-67.516c-9.324 0-16.88-7.558-16.88-16.88s7.556-16.88 16.88-16.88h67.516c9.324 0 16.878 7.558 16.878 16.88s-7.554 16.88-16.878 16.88z" fill="#E86C16" p-id="1884"></path><path d="M135.032 973.362H67.516a16.88 16.88 0 0 1 0-33.76h67.516a16.88 16.88 0 0 1 0 33.76zM821.446 973.362h-157.538c-9.324 0-16.88-7.558-16.88-16.88s7.556-16.88 16.88-16.88h157.538c9.324 0 16.88 7.558 16.88 16.88s-7.556 16.88-16.88 16.88z" fill="#FE9528" p-id="1885"></path><path d="M191.296 832.984H168.79c-18.644 0-33.758 15.114-33.758 33.758v16.878h90.022v-16.878c0-18.642-15.116-33.758-33.758-33.758z" fill="#E86C16" p-id="1886"></path><path d="M315.074 906.128H90.022a16.88 16.88 0 0 1 0-33.758h225.054a16.88 16.88 0 1 1-0.002 33.758z" fill="#FD8300" p-id="1887"></path><path d="M483.864 838.33h-78.768a16.88 16.88 0 0 1 0-33.758h78.768a16.88 16.88 0 0 1 0 33.758z" fill="#FE9528" p-id="1888"></path></svg>